<svg width="32" height="32" viewBox="0 0 32 32" fill="none" xmlns="http://www.w3.org/2000/svg">
<path d="M19.5633 14.6647C21.0757 13.5914 22.0606 11.8543 22.0606 9.89743C22.0606 6.64558 19.3418 4 16 4C12.6582 4 9.93939 6.64558 9.93939 9.89743C9.93939 11.8543 10.9242 13.5914 12.4367 14.6647C8.67701 16.0647 6 19.6117 6 23.7564C6 25.5449 7.49533 27 9.33333 27H22.6667C24.5047 27 26 25.5449 26 23.7564C26 19.6117 23.323 16.0647 19.5633 14.6647ZM11.7576 9.89743C11.7576 7.62115 13.6607 5.76925 16 5.76925C18.3393 5.76925 20.2424 7.62115 20.2424 9.89743C20.2424 12.1737 18.3393 14.0257 16 14.0257C13.6607 14.0257 11.7576 12.1737 11.7576 9.89743ZM22.6667 25.2308H9.33333C8.49789 25.2308 7.8182 24.5694 7.8182 23.7564C7.8182 19.3663 11.4885 15.7948 16 15.7948C20.5116 15.7948 24.1819 19.3663 24.1819 23.7564C24.1818 24.5694 23.5022 25.2308 22.6667 25.2308Z" fill="#555555"/>
</svg>
