<svg width="20" height="20" viewBox="0 0 20 20" fill="none" xmlns="http://www.w3.org/2000/svg">
<path d="M14.4328 9.98231L11.923 7.20936C11.8016 7.07531 11.6371 7 11.4655 7C11.2939 7 11.1294 7.07531 11.0081 7.20936C10.8868 7.34345 10.8186 7.52529 10.8186 7.71489C10.8186 7.9045 10.8868 8.08634 11.0081 8.22043L13.3083 10.7639H4.64704C4.47543 10.7639 4.31086 10.8392 4.18951 10.9733C4.06817 11.1074 4 11.2893 4 11.4789C4 11.6685 4.06817 11.8504 4.18951 11.9845C4.31086 12.1186 4.47543 12.194 4.64704 12.194H13.3478L11.0081 14.7789C10.9479 14.8453 10.9002 14.9241 10.8676 15.0109C10.8351 15.0977 10.8183 15.1908 10.8183 15.2847C10.8183 15.3787 10.8351 15.4718 10.8676 15.5586C10.9002 15.6454 10.9479 15.7242 11.0081 15.7906C11.1294 15.9247 11.2939 16 11.4655 16C11.6371 16 11.8016 15.9247 11.923 15.7906L14.4335 13.017C14.7964 12.6138 15.0001 12.0682 15 11.4995C14.9999 10.9308 14.796 10.3853 14.4328 9.98231Z" fill="#757575"/>
</svg>
