<svg width="32" height="32" viewBox="0 0 32 32" fill="none" xmlns="http://www.w3.org/2000/svg">
<path d="M25 10H22C22 8.4087 21.3679 6.88258 20.2426 5.75736C19.1174 4.63214 17.5913 4 16 4C14.4087 4 12.8826 4.63214 11.7574 5.75736C10.6321 6.88258 10 8.4087 10 10H7C6.20435 10 5.44129 10.3161 4.87868 10.8787C4.31607 11.4413 4 12.2044 4 13V23C4.00159 24.3256 4.52888 25.5964 5.46622 26.5338C6.40356 27.4711 7.67441 27.9984 9 28H23C24.3256 27.9984 25.5964 27.4711 26.5338 26.5338C27.4711 25.5964 27.9984 24.3256 28 23V13C28 12.2044 27.6839 11.4413 27.1213 10.8787C26.5587 10.3161 25.7956 10 25 10ZM16 6C17.0609 6 18.0783 6.42143 18.8284 7.17157C19.5786 7.92172 20 8.93913 20 10H12C12 8.93913 12.4214 7.92172 13.1716 7.17157C13.9217 6.42143 14.9391 6 16 6ZM26 23C26 23.7956 25.6839 24.5587 25.1213 25.1213C24.5587 25.6839 23.7956 26 23 26H9C8.20435 26 7.44129 25.6839 6.87868 25.1213C6.31607 24.5587 6 23.7956 6 23V13C6 12.7348 6.10536 12.4804 6.29289 12.2929C6.48043 12.1054 6.73478 12 7 12H10V14C10 14.2652 10.1054 14.5196 10.2929 14.7071C10.4804 14.8946 10.7348 15 11 15C11.2652 15 11.5196 14.8946 11.7071 14.7071C11.8946 14.5196 12 14.2652 12 14V12H20V14C20 14.2652 20.1054 14.5196 20.2929 14.7071C20.4804 14.8946 20.7348 15 21 15C21.2652 15 21.5196 14.8946 21.7071 14.7071C21.8946 14.5196 22 14.2652 22 14V12H25C25.2652 12 25.5196 12.1054 25.7071 12.2929C25.8946 12.4804 26 12.7348 26 13V23Z" fill="#555555"/>
</svg>
