<svg width="40" height="40" viewBox="0 0 40 40" fill="none" xmlns="http://www.w3.org/2000/svg">
<rect width="40" height="40" rx="20" fill="white"/>
<path d="M20.0016 30L11.7163 21.8449C10.6175 20.7635 10.0001 19.2967 10 17.7672C9.99991 16.2377 10.6171 14.7709 11.7158 13.6893C12.8145 12.6078 14.3047 12.0001 15.8586 12C17.4125 11.9999 18.9028 12.6074 20.0016 13.6888C21.101 12.6086 22.5909 12.0019 24.1443 12.0019C25.6977 12.0019 27.1876 12.6086 28.287 13.6888V13.6888C29.3839 14.7712 30 16.2376 30 17.7664C30 19.2952 29.3839 20.7616 28.287 21.8439L20.0016 30ZM15.8585 13.9224C15.0859 13.9224 14.3306 14.1479 13.6883 14.5703C13.0459 14.9928 12.5452 15.5934 12.2496 16.2959C11.9541 16.9985 11.8768 17.7716 12.0276 18.5174C12.1784 19.2632 12.5506 19.9483 13.097 20.4859L20.0016 27.282L26.9062 20.4859C27.3028 20.1042 27.6123 19.6438 27.814 19.1353C28.0157 18.6268 28.1051 18.0818 28.0762 17.5366C28.0473 16.9914 27.9008 16.4585 27.6463 15.9734C27.3919 15.4883 27.0354 15.0621 26.6006 14.7232C26.1659 14.3843 25.6627 14.1404 25.1247 14.0077C24.5867 13.8751 24.0261 13.8567 23.4803 13.9539C22.9346 14.0511 22.4161 14.2616 21.9594 14.5713C21.5027 14.8811 21.1182 15.283 20.8316 15.7504L20.0016 17.0691L19.1716 15.7504C18.829 15.1882 18.343 14.7239 17.7618 14.4036C17.1807 14.0833 16.5245 13.918 15.8585 13.9243V13.9224Z" fill="#757575"/>
</svg>
