<svg width="40" height="40" viewBox="0 0 40 40" fill="none" xmlns="http://www.w3.org/2000/svg">
<rect width="40" height="40" rx="20" fill="white"/>
<path d="M29.3925 17.8492C28.1 15.7442 25.16 12.2125 20 12.2125C14.84 12.2125 11.9 15.7442 10.6075 17.8492C10.208 18.4954 9.99634 19.2402 9.99634 20C9.99634 20.7598 10.208 21.5046 10.6075 22.1508C11.9 24.2558 14.84 27.7875 20 27.7875C25.16 27.7875 28.1 24.2558 29.3925 22.1508C29.7921 21.5046 30.0037 20.7598 30.0037 20C30.0037 19.2402 29.7921 18.4954 29.3925 17.8492V17.8492ZM27.9717 21.2783C26.8617 23.0833 24.3492 26.1208 20 26.1208C15.6509 26.1208 13.1384 23.0833 12.0284 21.2783C11.791 20.8942 11.6653 20.4516 11.6653 20C11.6653 19.5484 11.791 19.1058 12.0284 18.7217C13.1384 16.9167 15.6509 13.8792 20 13.8792C24.3492 13.8792 26.8617 16.9133 27.9717 18.7217C28.2091 19.1058 28.3348 19.5484 28.3348 20C28.3348 20.4516 28.2091 20.8942 27.9717 21.2783V21.2783Z" fill="#757575"/>
<path d="M19.9999 15.8333C19.1758 15.8333 18.3702 16.0777 17.685 16.5355C16.9998 16.9934 16.4658 17.6441 16.1504 18.4055C15.8351 19.1668 15.7525 20.0046 15.9133 20.8129C16.0741 21.6211 16.4709 22.3636 17.0536 22.9463C17.6364 23.529 18.3788 23.9258 19.187 24.0866C19.9953 24.2474 20.8331 24.1649 21.5944 23.8495C22.3558 23.5341 23.0065 23.0001 23.4644 22.3149C23.9222 21.6297 24.1666 20.8241 24.1666 20C24.1653 18.8953 23.7259 17.8363 22.9447 17.0552C22.1636 16.2741 21.1046 15.8347 19.9999 15.8333V15.8333ZM19.9999 22.5C19.5055 22.5 19.0221 22.3534 18.611 22.0787C18.1999 21.804 17.8794 21.4135 17.6902 20.9567C17.501 20.4999 17.4515 19.9972 17.548 19.5123C17.6444 19.0273 17.8825 18.5819 18.2322 18.2322C18.5818 17.8826 19.0272 17.6445 19.5122 17.548C19.9971 17.4516 20.4998 17.5011 20.9566 17.6903C21.4134 17.8795 21.8039 18.1999 22.0786 18.6111C22.3533 19.0222 22.4999 19.5055 22.4999 20C22.4999 20.663 22.2365 21.2989 21.7677 21.7678C21.2988 22.2366 20.663 22.5 19.9999 22.5Z" fill="#757575"/>
</svg>
