<svg width="20" height="20" viewBox="0 0 20 20" fill="none" xmlns="http://www.w3.org/2000/svg">
<path fill-rule="evenodd" clip-rule="evenodd" d="M9.12564 4C9.59902 4 10.0526 4.18779 10.3874 4.52258L15.477 9.61222C15.6428 9.77793 15.7744 9.97467 15.8641 10.1912C15.9538 10.4078 16 10.6399 16 10.8743C16 11.1087 15.9538 11.3408 15.8641 11.5573C15.7744 11.7739 15.6428 11.9706 15.477 12.1363L12.1363 15.477C11.9706 15.6428 11.7739 15.7744 11.5573 15.8641C11.3408 15.9538 11.1087 16 10.8743 16C10.6399 16 10.4078 15.9538 10.1912 15.8641C9.97467 15.7744 9.77793 15.6428 9.61222 15.477L4.52258 10.3874C4.35689 10.2217 4.22547 10.025 4.1358 9.80849C4.04613 9.592 3.99999 9.35997 4 9.12564V5.78434C4 5.31111 4.18799 4.85725 4.52262 4.52262C4.85725 4.18799 5.31111 4 5.78434 4H9.12564ZM9.12564 5.19996H5.78434C5.62936 5.19996 5.48072 5.26153 5.37112 5.37112C5.26153 5.48072 5.19996 5.62936 5.19996 5.78434V9.12564C5.19996 9.28043 5.26176 9.42923 5.37096 9.53903L10.4606 14.6287C10.6886 14.8567 11.0594 14.8567 11.2874 14.6287L14.6287 11.2874C14.683 11.2331 14.7261 11.1687 14.7555 11.0977C14.7849 11.0268 14.8 10.9508 14.8 10.874C14.8 10.7972 14.7849 10.7212 14.7555 10.6502C14.7261 10.5793 14.683 10.5149 14.6287 10.4606L9.53903 5.37096C9.48466 5.31663 9.4201 5.27356 9.34907 5.24422C9.27803 5.21488 9.2019 5.19984 9.12504 5.19996H9.12564ZM7.59989 6.39992C7.91814 6.39992 8.22335 6.52635 8.44839 6.75139C8.67342 6.97642 8.79985 7.28164 8.79985 7.59989C8.79985 7.91814 8.67342 8.22335 8.44839 8.44839C8.22335 8.67342 7.91814 8.79985 7.59989 8.79985C7.28164 8.79985 6.97642 8.67342 6.75139 8.44839C6.52635 8.22335 6.39992 7.91814 6.39992 7.59989C6.39992 7.28164 6.52635 6.97642 6.75139 6.75139C6.97642 6.52635 7.28164 6.39992 7.59989 6.39992Z" fill="#7AC751"/>
</svg>
