<svg width="145" height="39" viewBox="0 0 145 39" fill="none" xmlns="http://www.w3.org/2000/svg">
<path d="M37.5692 26.8837C37.4111 26.8837 37.2767 26.8295 37.166 26.7209C37.0553 26.6124 37 26.4806 37 26.3256V11.186C37 11.0155 37.0474 10.876 37.1423 10.7674C37.253 10.6589 37.3953 10.6047 37.5692 10.6047H47.8628C48.0367 10.6047 48.179 10.6589 48.2897 10.7674C48.4004 10.876 48.4557 11.0155 48.4557 11.186V12.814C48.4557 12.9845 48.4004 13.124 48.2897 13.2326C48.179 13.3256 48.0367 13.3721 47.8628 13.3721H40.2493V17.7907H47.3884C47.5623 17.7907 47.7046 17.845 47.8153 17.9535C47.926 18.062 47.9813 18.2015 47.9813 18.3721V20C47.9813 20.1705 47.926 20.3101 47.8153 20.4186C47.7046 20.5116 47.5623 20.5581 47.3884 20.5581H40.2493V26.3256C40.2493 26.4961 40.194 26.6357 40.0833 26.7442C39.9726 26.8372 39.8303 26.8837 39.6564 26.8837H37.5692Z" fill="#555555"/>
<path d="M55.3522 27.1163C53.8975 27.1163 52.7512 26.6512 51.9131 25.7209C51.0751 24.7752 50.6561 23.4961 50.6561 21.8837V15.3488C50.6561 15.1938 50.7114 15.062 50.8221 14.9535C50.9328 14.845 51.0672 14.7907 51.2253 14.7907H53.3125C53.4864 14.7907 53.6208 14.845 53.7157 14.9535C53.8264 15.0465 53.8817 15.1783 53.8817 15.3488V21.7442C53.8817 23.6667 54.7434 24.6279 56.4669 24.6279C57.2892 24.6279 57.9374 24.3721 58.4118 23.8605C58.902 23.3488 59.1471 22.6434 59.1471 21.7442V15.3488C59.1471 15.1938 59.2024 15.062 59.3131 14.9535C59.4238 14.845 59.5582 14.7907 59.7163 14.7907H61.8034C61.9774 14.7907 62.1118 14.845 62.2066 14.9535C62.3173 15.0465 62.3727 15.1783 62.3727 15.3488V26.3256C62.3727 26.4806 62.3173 26.6124 62.2066 26.7209C62.1118 26.8295 61.9774 26.8837 61.8034 26.8837H59.8823C59.7242 26.8837 59.5898 26.8295 59.4791 26.7209C59.3684 26.6124 59.3131 26.4806 59.3131 26.3256V25.3721C58.4276 26.5349 57.1073 27.1163 55.3522 27.1163Z" fill="#555555"/>
<path d="M66.0749 26.8837C65.9168 26.8837 65.7824 26.8295 65.6717 26.7209C65.561 26.6124 65.5056 26.4806 65.5056 26.3256V15.3721C65.5056 15.2171 65.561 15.0853 65.6717 14.9767C65.7824 14.8527 65.9168 14.7907 66.0749 14.7907H67.996C68.1699 14.7907 68.3123 14.845 68.4229 14.9535C68.5336 15.062 68.589 15.2015 68.589 15.3721V16.3256C68.9684 15.8295 69.4428 15.4496 70.012 15.186C70.5971 14.9225 71.2612 14.7907 72.0043 14.7907H72.9767C73.1507 14.7907 73.2851 14.845 73.38 14.9535C73.4906 15.0465 73.546 15.1783 73.546 15.3488V17.0233C73.546 17.1783 73.4906 17.3101 73.38 17.4186C73.2851 17.5271 73.1507 17.5814 72.9767 17.5814H71.1268C70.3836 17.5814 69.7986 17.7907 69.3716 18.2093C68.9447 18.6279 68.7313 19.2015 68.7313 19.9302V26.3256C68.7313 26.4806 68.6759 26.6124 68.5652 26.7209C68.4546 26.8295 68.3123 26.8837 68.1383 26.8837H66.0749Z" fill="#555555"/>
<path d="M75.965 26.8837C75.8069 26.8837 75.6725 26.8295 75.5618 26.7209C75.4511 26.6124 75.3958 26.4806 75.3958 26.3256V15.3488C75.3958 15.1938 75.4511 15.062 75.5618 14.9535C75.6725 14.845 75.8069 14.7907 75.965 14.7907H77.9099C78.068 14.7907 78.2024 14.845 78.3131 14.9535C78.4238 15.062 78.4791 15.1938 78.4791 15.3488V16.3023C79.412 15.1395 80.7323 14.5581 82.44 14.5581C83.8947 14.5581 85.0489 15.031 85.9028 15.9767C86.7566 16.907 87.1835 18.1783 87.1835 19.7907V26.3256C87.1835 26.4806 87.1282 26.6124 87.0175 26.7209C86.9226 26.8295 86.7882 26.8837 86.6143 26.8837H84.5271C84.369 26.8837 84.2346 26.8295 84.1239 26.7209C84.0132 26.6124 83.9579 26.4806 83.9579 26.3256V19.9302C83.9579 19.0155 83.7286 18.3101 83.2701 17.814C82.8274 17.3023 82.1791 17.0465 81.3252 17.0465C80.4872 17.0465 79.8231 17.3023 79.3329 17.814C78.8586 18.3256 78.6214 19.031 78.6214 19.9302V26.3256C78.6214 26.4806 78.5661 26.6124 78.4554 26.7209C78.3605 26.8295 78.2261 26.8837 78.0522 26.8837H75.965Z" fill="#555555"/>
<path d="M90.6706 12.7907C90.5125 12.7907 90.3781 12.7364 90.2674 12.6279C90.1567 12.5194 90.1014 12.3876 90.1014 12.2326V10.5581C90.1014 10.4031 90.1567 10.2713 90.2674 10.1628C90.3781 10.0543 90.5125 10 90.6706 10H92.8289C92.987 10 93.1214 10.0543 93.2321 10.1628C93.3586 10.2713 93.4219 10.4031 93.4219 10.5581V12.2326C93.4219 12.3876 93.3665 12.5194 93.2558 12.6279C93.1452 12.7364 93.0029 12.7907 92.8289 12.7907H90.6706ZM90.7655 26.8837C90.6073 26.8837 90.4729 26.8295 90.3623 26.7209C90.2516 26.6124 90.1962 26.4806 90.1962 26.3256V15.3488C90.1962 15.1938 90.2516 15.062 90.3623 14.9535C90.4729 14.845 90.6073 14.7907 90.7655 14.7907H92.7341C92.908 14.7907 93.0424 14.845 93.1373 14.9535C93.2479 15.0465 93.3033 15.1783 93.3033 15.3488V26.3256C93.3033 26.4806 93.2479 26.6124 93.1373 26.7209C93.0424 26.8295 92.908 26.8837 92.7341 26.8837H90.7655Z" fill="#555555"/>
<path d="M97.0429 26.8837C96.8848 26.8837 96.7504 26.8295 96.6397 26.7209C96.529 26.6124 96.4737 26.4806 96.4737 26.3256V10.9302C96.4737 10.7597 96.529 10.6279 96.6397 10.5349C96.7504 10.4264 96.8848 10.3721 97.0429 10.3721H98.964C99.138 10.3721 99.2724 10.4264 99.3673 10.5349C99.4779 10.6279 99.5333 10.7597 99.5333 10.9302V18.8837L103.518 15.186C103.565 15.155 103.644 15.093 103.755 15C103.85 14.9225 103.945 14.8682 104.04 14.8372C104.135 14.8062 104.253 14.7907 104.395 14.7907H106.601C106.759 14.7907 106.886 14.8372 106.981 14.9302C107.076 15.0233 107.123 15.1473 107.123 15.3023C107.123 15.4419 107.044 15.5814 106.886 15.7209L102 20.2093L107.479 25.9767C107.637 26.1318 107.716 26.2636 107.716 26.3721C107.716 26.5271 107.661 26.6512 107.55 26.7442C107.455 26.8372 107.336 26.8837 107.194 26.8837H104.941C104.72 26.8837 104.554 26.8605 104.443 26.814C104.348 26.7519 104.221 26.6434 104.063 26.4884L99.5333 21.814V26.3256C99.5333 26.4806 99.4779 26.6124 99.3673 26.7209C99.2724 26.8295 99.138 26.8837 98.964 26.8837H97.0429Z" fill="#555555"/>
<path d="M109.964 12.7907C109.806 12.7907 109.672 12.7364 109.561 12.6279C109.451 12.5194 109.395 12.3876 109.395 12.2326V10.5581C109.395 10.4031 109.451 10.2713 109.561 10.1628C109.672 10.0543 109.806 10 109.964 10H112.123C112.281 10 112.415 10.0543 112.526 10.1628C112.652 10.2713 112.716 10.4031 112.716 10.5581V12.2326C112.716 12.3876 112.66 12.5194 112.55 12.6279C112.439 12.7364 112.297 12.7907 112.123 12.7907H109.964ZM110.059 26.8837C109.901 26.8837 109.767 26.8295 109.656 26.7209C109.545 26.6124 109.49 26.4806 109.49 26.3256V15.3488C109.49 15.1938 109.545 15.062 109.656 14.9535C109.767 14.845 109.901 14.7907 110.059 14.7907H112.028C112.202 14.7907 112.336 14.845 112.431 14.9535C112.542 15.0465 112.597 15.1783 112.597 15.3488V26.3256C112.597 26.4806 112.542 26.6124 112.431 26.7209C112.336 26.8295 112.202 26.8837 112.028 26.8837H110.059Z" fill="#555555"/>
<path d="M116.313 26.8837C116.155 26.8837 116.021 26.8295 115.91 26.7209C115.799 26.6124 115.744 26.4806 115.744 26.3256V15.3488C115.744 15.1938 115.799 15.062 115.91 14.9535C116.021 14.845 116.155 14.7907 116.313 14.7907H118.258C118.416 14.7907 118.55 14.845 118.661 14.9535C118.772 15.062 118.827 15.1938 118.827 15.3488V16.3023C119.76 15.1395 121.08 14.5581 122.788 14.5581C124.243 14.5581 125.397 15.031 126.251 15.9767C127.105 16.907 127.532 18.1783 127.532 19.7907V26.3256C127.532 26.4806 127.476 26.6124 127.366 26.7209C127.271 26.8295 127.136 26.8837 126.962 26.8837H124.875C124.717 26.8837 124.583 26.8295 124.472 26.7209C124.361 26.6124 124.306 26.4806 124.306 26.3256V19.9302C124.306 19.0155 124.077 18.3101 123.618 17.814C123.175 17.3023 122.527 17.0465 121.673 17.0465C120.835 17.0465 120.171 17.3023 119.681 17.814C119.207 18.3256 118.969 19.031 118.969 19.9302V26.3256C118.969 26.4806 118.914 26.6124 118.803 26.7209C118.709 26.8295 118.574 26.8837 118.4 26.8837H116.313Z" fill="#555555"/>
<path d="M136.118 32C134.711 32 133.572 31.7674 132.703 31.3023C131.833 30.8527 131.216 30.3333 130.853 29.7442C130.489 29.155 130.307 28.6512 130.307 28.2326C130.307 28.093 130.362 27.969 130.473 27.8605C130.6 27.7519 130.734 27.6977 130.876 27.6977H132.94C133.082 27.6977 133.201 27.7287 133.296 27.7907C133.406 27.8682 133.493 28 133.556 28.186C133.715 28.6047 133.968 28.9535 134.315 29.2326C134.679 29.5271 135.24 29.6744 135.999 29.6744C136.948 29.6744 137.644 29.4651 138.087 29.0465C138.545 28.6279 138.774 27.907 138.774 26.8837V25.3023C137.905 26.3101 136.687 26.814 135.122 26.814C133.477 26.814 132.236 26.3178 131.398 25.3256C130.576 24.3333 130.133 23 130.07 21.3256L130.046 20.6977L130.07 20.0698C130.133 18.4264 130.584 17.1008 131.422 16.093C132.26 15.0698 133.493 14.5581 135.122 14.5581C135.96 14.5581 136.695 14.7132 137.328 15.0233C137.96 15.3333 138.49 15.7597 138.917 16.3023V15.3721C138.917 15.2015 138.972 15.062 139.083 14.9535C139.193 14.845 139.328 14.7907 139.486 14.7907H141.407C141.565 14.7907 141.7 14.8527 141.81 14.9767C141.921 15.0853 141.976 15.2171 141.976 15.3721L142 26.5814C142 28.3023 141.51 29.6357 140.529 30.5814C139.549 31.5271 138.079 32 136.118 32ZM135.999 24.3488C136.901 24.3488 137.573 24.0698 138.015 23.5116C138.474 22.9535 138.727 22.2713 138.774 21.4651C138.79 21.3411 138.798 21.0853 138.798 20.6977C138.798 20.3256 138.79 20.0775 138.774 19.9535C138.727 19.1318 138.474 18.4419 138.015 17.8837C137.573 17.3256 136.901 17.0465 135.999 17.0465C134.292 17.0465 133.39 18.0775 133.296 20.1395L133.272 20.6977C133.272 21.7984 133.469 22.6822 133.865 23.3488C134.276 24.0155 134.987 24.3488 135.999 24.3488Z" fill="#555555"/>
<path d="M6.00948 6.95269C6.65906 6.95269 7.18889 6.42591 7.18889 5.78006C7.18889 5.13421 6.65906 4.60742 6.00948 4.60742C5.3599 4.60742 4.83008 5.13421 4.83008 5.78006C4.83008 6.42951 5.3599 6.95269 6.00948 6.95269Z" fill="#85B839"/>
<path d="M9.66023 24.8057V27.0572C11.4965 25.733 13.6884 25.0078 16 25.0078C18.308 25.0078 20.5035 25.733 22.3398 27.0572V24.8057C22.3398 22.9151 23.2942 21.2445 24.7421 20.2379C24.6187 17.8637 22.6446 15.9695 20.2277 15.9695H11.7723C9.3554 15.9695 7.38126 17.8637 7.25787 20.2379C8.70582 21.2445 9.66023 22.9151 9.66023 24.8057Z" fill="#85B839"/>
<path d="M22.9748 12.542H8.97437V14.4399H22.9748V12.542Z" fill="#85B839"/>
<path d="M22.3397 29.0527C20.6123 27.4434 18.3769 26.5522 15.9999 26.5522C13.623 26.5522 11.3875 27.4434 9.66016 29.0527V31.1093H22.3397V29.0527Z" fill="#85B839"/>
<path d="M25.7219 6.95269C26.3715 6.95269 26.9013 6.42591 26.9013 5.78006C26.9013 5.13421 26.3715 4.60742 25.7219 4.60742C25.0723 4.60742 24.5425 5.13421 24.5425 5.78006C24.5425 6.42951 25.0723 6.95269 25.7219 6.95269Z" fill="#85B839"/>
<path d="M16.0181 3.78129C17.0669 3.78129 17.9197 2.93339 17.9197 1.89065C17.9197 0.847904 17.0669 0 16.0181 0C14.9694 0 14.1166 0.847904 14.1166 1.89065C14.1166 2.93339 14.9694 3.78129 16.0181 3.78129Z" fill="#85B839"/>
<path d="M27.9465 20.7754C25.711 20.7754 23.8929 22.5831 23.8929 24.8056V32.6497H8.10705V24.8056C8.10705 22.5831 6.28895 20.7754 4.05353 20.7754C1.8181 20.7754 0 22.5831 0 24.8056C0 27.0282 1.8181 28.8359 4.05353 28.8359H4.83012V35.9114H27.1699V28.8359H27.9465C30.1819 28.8359 32 27.0282 32 24.8056C32 22.5831 30.1819 20.7754 27.9465 20.7754ZM4.05353 26.0577C3.35677 26.0577 2.79428 25.4984 2.79428 24.8056C2.79428 24.1129 3.3604 23.5536 4.05353 23.5536C4.75028 23.5536 5.31277 24.1129 5.31277 24.8056C5.31277 25.4984 4.75028 26.0577 4.05353 26.0577ZM27.9465 26.0577C27.2497 26.0577 26.6872 25.4984 26.6872 24.8056C26.6872 24.1129 27.2497 23.5536 27.9465 23.5536C28.6432 23.5536 29.2057 24.1129 29.2057 24.8056C29.2057 25.4984 28.6432 26.0577 27.9465 26.0577Z" fill="#85B839"/>
<path d="M8.75656 10.9976H23.1889C23.9763 10.1497 24.5461 9.15386 24.8618 8.06782C23.9292 8.55491 22.884 8.82552 21.8099 8.82552C19.266 8.82552 17.0632 7.38228 15.9709 5.27515C14.8786 7.37867 12.6722 8.82552 10.1319 8.82552C9.05413 8.82552 8.01263 8.56574 7.08362 8.08225C7.40659 9.16107 7.97271 10.1533 8.75656 10.9976Z" fill="#85B839"/>
<path d="M9.66024 37.4558H8.10706V39.0001H9.66024V37.4558Z" fill="#85B839"/>
<path d="M23.8929 37.4558H22.3397V39.0001H23.8929V37.4558Z" fill="#85B839"/>
</svg>
