<svg width="24" height="24" viewBox="0 0 24 24" fill="none" xmlns="http://www.w3.org/2000/svg">
<path fill-rule="evenodd" clip-rule="evenodd" d="M2 12.5C2 11.6716 2.54035 11 3.2069 11H14.7931C15.4597 11 16 11.6716 16 12.5C16 13.3284 15.4597 14 14.7931 14H3.2069C2.54035 14 2 13.3284 2 12.5Z" fill="white"/>
<path fill-rule="evenodd" clip-rule="evenodd" d="M2 5.5C2 4.67157 2.54599 4 3.21951 4H20.7805C21.454 4 22 4.67157 22 5.5C22 6.32843 21.454 7 20.7805 7H3.21951C2.54599 7 2 6.32843 2 5.5Z" fill="white"/>
<path fill-rule="evenodd" clip-rule="evenodd" d="M2 19.5C2 18.6716 2.52672 18 3.17647 18H8.82353C9.47328 18 10 18.6716 10 19.5C10 20.3284 9.47328 21 8.82353 21H3.17647C2.52672 21 2 20.3284 2 19.5Z" fill="white"/>
</svg>
