<svg width="32" height="32" viewBox="0 0 32 32" fill="none" xmlns="http://www.w3.org/2000/svg">
<path fill-rule="evenodd" clip-rule="evenodd" d="M7.93021 11.5453C7.93021 7.90867 11.187 4 16 4C20.813 4 24.0698 7.90867 24.0698 11.5453C24.0698 12.4335 24.1789 13.0472 24.3241 13.513C24.4698 13.9806 24.664 14.3412 24.8962 14.7436C24.9199 14.7846 24.9444 14.8267 24.9694 14.8697C25.1823 15.2358 25.4386 15.6764 25.6339 16.2054C25.8605 16.8193 26 17.5278 26 18.4394C26 18.4687 25.9988 18.4979 25.9963 18.5271C25.9168 19.4759 25.6432 20.3205 25.1147 21.0281C24.589 21.7321 23.8671 22.2253 23.0113 22.5723C21.3471 23.247 18.9888 23.4383 16 23.4383C13.0128 23.4383 10.6545 23.2502 8.99024 22.5771C8.13416 22.2309 7.41178 21.7379 6.88565 21.0329C6.35695 20.3244 6.08341 19.4782 6.00367 18.5271C6.00122 18.4979 6 18.4687 6 18.4394C6 17.5278 6.13951 16.8193 6.36614 16.2054C6.56141 15.6764 6.81766 15.2358 7.03056 14.8698C7.05562 14.8267 7.08007 14.7846 7.10375 14.7436C7.33597 14.3412 7.53018 13.9806 7.67593 13.513C7.82109 13.0472 7.93021 12.4335 7.93021 11.5453ZM16 6.02817C12.2272 6.02817 9.88939 9.07169 9.88939 11.5453C9.88939 12.6128 9.75722 13.4402 9.54047 14.1357C9.32432 14.8293 9.03597 15.35 8.78564 15.7838C8.76123 15.8261 8.73744 15.8672 8.71426 15.9072C8.49278 16.2896 8.32629 16.5771 8.19623 16.9294C8.06392 17.2878 7.96366 17.737 7.95933 18.3949C8.01775 19.0217 8.18882 19.4616 8.43607 19.7929C8.69152 20.1353 9.08557 20.4383 9.70312 20.688C10.9861 21.2068 13.0038 21.4101 16 21.4101C18.9957 21.4101 21.0139 21.2039 22.2969 20.6838C22.9147 20.4333 23.3092 20.1298 23.5647 19.7876C23.812 19.4566 23.9826 19.0181 24.0407 18.3949C24.0363 17.737 23.9361 17.2878 23.8038 16.9294C23.6737 16.5771 23.5072 16.2896 23.2857 15.9072C23.2626 15.8672 23.2388 15.8261 23.2144 15.7838C22.964 15.35 22.6757 14.8293 22.4595 14.1357C22.2428 13.4402 22.1106 12.6128 22.1106 11.5453C22.1106 9.07169 19.7728 6.02817 16 6.02817ZM12.7129 24.9762C13.1153 24.6018 13.7347 24.6361 14.0962 25.0527C15.1648 26.2837 16.7448 26.273 17.8071 25.0518C18.1692 24.6357 18.7886 24.6021 19.1906 24.9769C19.5926 25.3517 19.625 25.9929 19.263 26.4091C17.43 28.516 14.4934 28.5448 12.6389 26.4082C12.2774 25.9917 12.3104 25.3505 12.7129 24.9762Z" fill="#555555"/>
</svg>
