<svg width="32" height="32" viewBox="0 0 32 32" fill="none" xmlns="http://www.w3.org/2000/svg">
<path d="M10.0001 14.0414C10.0001 13.3133 10.1273 12.6254 10.3782 11.9833C10.6178 11.3597 10.9739 10.7874 11.4274 10.2968C11.8799 9.81263 12.3978 9.39398 12.966 9.05293C13.549 8.70022 14.1802 8.43413 14.8398 8.263C15.5073 8.08772 16.1946 7.99932 16.8848 8C17.9508 8 18.9429 8.22556 19.8629 8.67481C20.7709 9.11587 21.5438 9.79273 22.1007 10.6347C22.6754 11.491 22.9608 12.4597 22.9608 13.5398C22.9608 14.1875 22.8972 14.8211 22.7671 15.4407C22.6394 16.0599 22.4363 16.6612 22.1625 17.2311C21.9015 17.7828 21.5602 18.2928 21.1498 18.7445C20.7373 19.189 20.2378 19.5439 19.6823 19.7871C19.0792 20.0514 18.4267 20.1845 17.7683 20.1774C17.3106 20.1774 16.8539 20.0698 16.4028 19.8536C15.9517 19.6383 15.6278 19.3426 15.4331 18.9635C15.3648 19.2265 15.2712 19.6065 15.1468 20.1035C15.027 20.5995 14.9465 20.9196 14.9109 21.0647C14.8735 21.2088 14.8042 21.4494 14.7031 21.7825C14.6346 22.029 14.5466 22.2697 14.4401 22.5023L14.1182 23.1331C13.9789 23.4038 13.8233 23.6657 13.6521 23.9174C13.4827 24.1626 13.273 24.4556 13.0231 24.7925L12.8837 24.8421L12.791 24.741C12.6909 23.6806 12.6394 23.0461 12.6394 22.8364C12.6394 22.2159 12.7133 21.5195 12.8593 20.7465C13.0025 19.9743 13.229 19.0038 13.5332 17.8367C13.8374 16.6705 14.0115 15.9844 14.0583 15.7813C13.8439 15.3443 13.7354 14.7733 13.7354 14.0714C13.7354 13.5108 13.9104 12.9857 14.2614 12.4915C14.6133 11.9992 15.0578 11.7531 15.5969 11.7531C16.0097 11.7531 16.3298 11.8897 16.5591 12.164C16.7893 12.4373 16.9016 12.7817 16.9016 13.2019C16.9016 13.6474 16.7537 14.2923 16.4561 15.1356C16.1585 15.9798 16.0106 16.6096 16.0106 17.028C16.0106 17.452 16.1622 17.8067 16.4655 18.0847C16.7647 18.3628 17.1605 18.5135 17.5689 18.5049C17.9396 18.5049 18.2831 18.4207 18.6022 18.2513C18.9164 18.0868 19.1883 17.852 19.3968 17.5652C19.851 16.9422 20.1747 16.2339 20.3487 15.4828C20.4385 15.0878 20.5078 14.7125 20.5508 14.3597C20.5967 14.0049 20.6163 13.6699 20.6163 13.3517C20.6163 12.1846 20.2457 11.2748 19.5091 10.6234C18.7688 9.97201 17.8048 9.64818 16.619 9.64818C15.2703 9.64818 14.1425 10.0843 13.2393 10.9594C12.3352 11.8317 11.8803 12.9408 11.8803 14.2857C11.8803 14.5824 11.9253 14.8688 12.0104 15.1458C12.0937 15.4219 12.1845 15.6419 12.2828 15.8047C12.3801 15.9648 12.4719 16.1211 12.5552 16.2652C12.6394 16.4094 12.6834 16.5123 12.6834 16.5741C12.6834 16.7631 12.6338 17.0093 12.5336 17.3135C12.4297 17.6176 12.3071 17.7693 12.1593 17.7693C12.1452 17.7693 12.0872 17.759 11.9861 17.7374C11.636 17.6329 11.3199 17.4376 11.0698 17.1712C10.8044 16.8952 10.595 16.5703 10.4531 16.2147C10.3115 15.8603 10.2013 15.4942 10.1236 15.1206C10.0397 14.7671 9.99821 14.4048 10.0001 14.0414Z" fill="#555555"/>
</svg>
