<svg width="10" height="9" viewBox="0 0 10 9" fill="none" xmlns="http://www.w3.org/2000/svg">
<path d="M3.32449 3.23457L3.63075 3.19259L3.77434 2.91883L4.99022 0.600698C4.99264 0.600278 4.99556 0.59999 4.99885 0.6C5.00312 0.600013 5.00698 0.60053 5.01008 0.601259L6.22566 2.91883L6.36925 3.19259L6.67552 3.23457L9.33917 3.59973L7.43764 5.34209L7.19315 5.56612L7.25276 5.89232L7.71042 8.39694C7.70995 8.39673 7.70945 8.39649 7.70894 8.39624L7.70884 8.39619L5.26586 7.18873L5 7.05732L4.73415 7.18873L2.29116 8.39619L2.28957 8.39698L2.74724 5.89232L2.80685 5.56612L2.56236 5.34209L0.660828 3.59973L3.32449 3.23457Z" fill="white" stroke="#7AC751" stroke-width="1.2"/>
</svg>
