<svg width="40" height="40" viewBox="0 0 40 40" fill="none" xmlns="http://www.w3.org/2000/svg">
<rect width="40" height="40" rx="20" fill="white"/>
<path d="M14.4171 14.4855C15.1455 13.6903 15.9922 13.0925 16.8942 12.6815C19.892 11.3154 23.5404 12.0203 25.8084 14.6422L27.3751 13.2839C27.4621 13.2084 27.6018 13.2782 27.6102 13.3965L27.9998 18.7164C28.0046 18.8049 27.9238 18.875 27.8413 18.8538L22.717 17.6445C22.6003 17.6147 22.5565 17.4672 22.6435 17.3917L24.2071 16.0361C22.7082 14.3186 20.3927 13.751 18.3545 14.4106C17.584 14.6586 16.8554 15.0775 16.2288 15.6808C15.3672 16.5096 14.8272 17.5725 14.6133 18.6964C14.5005 19.2961 13.9197 19.6796 13.3328 19.5393C12.7742 19.4071 12.4255 18.8474 12.536 18.2769C12.7963 16.8892 13.4257 15.5687 14.4171 14.4855ZM25.3897 21.3067C25.1816 22.431 24.6384 23.4966 23.7742 24.3223C23.1445 24.9283 22.4133 25.344 21.6485 25.5925C19.6102 26.2521 17.2917 25.6872 15.7959 23.967L17.3595 22.6114C17.4465 22.5359 17.4 22.3853 17.286 22.3587L12.1591 21.1461C12.0734 21.1276 11.9926 21.1977 12.0005 21.2836L12.3875 26.6003C12.3985 26.7217 12.5356 26.7884 12.6226 26.7129L14.1893 25.3546C16.4542 27.9792 20.1052 28.6873 23.1034 27.3153C24.0055 26.9043 24.8495 26.3034 25.5806 25.5113C26.5746 24.4313 27.2041 23.1108 27.4644 21.723C27.5722 21.1494 27.2261 20.5929 26.6675 20.4607C26.0832 20.3235 25.5025 20.707 25.3897 21.3067Z" fill="#757575" stroke="white" stroke-width="0.3"/>
</svg>
