<svg width="32" height="32" viewBox="0 0 32 32" fill="none" xmlns="http://www.w3.org/2000/svg">
<path d="M20.7 19.2298C21.6 18.0373 22.1 16.646 22.1 15.0559C22.1 11.1801 19 8 15.1 8C11.2 8 8 11.1801 8 15.0559C8 18.9317 11.2 22.1118 15.1 22.1118C16.7 22.1118 18.2 21.6149 19.3 20.7205L22.3 23.7019C22.5 23.9006 22.8 24 23 24C23.2 24 23.5 23.9006 23.7 23.7019C24.1 23.3043 24.1 22.7081 23.7 22.3106L20.7 19.2298ZM15.1 20.0248C12.3 20.0248 10 17.8385 10 15.0559C10 12.2733 12.3 9.98758 15.1 9.98758C17.9 9.98758 20.2 12.2733 20.2 15.0559C20.2 17.8385 17.9 20.0248 15.1 20.0248Z" fill="white"/>
</svg>
