<svg width="40" height="40" viewBox="0 0 40 40" fill="none" xmlns="http://www.w3.org/2000/svg">
<rect width="40" height="40" rx="20" fill="white"/>
<path d="M28.9029 25.6722H27.2842V24.0516C27.2842 23.8367 27.199 23.6306 27.0472 23.4786C26.8954 23.3267 26.6895 23.2413 26.4749 23.2413C26.2602 23.2413 26.0544 23.3267 25.9026 23.4786C25.7508 23.6306 25.6655 23.8367 25.6655 24.0516V25.6722H24.0468C23.8322 25.6722 23.6263 25.7576 23.4745 25.9095C23.3227 26.0615 23.2375 26.2676 23.2375 26.4825C23.2375 26.6974 23.3227 26.9035 23.4745 27.0555C23.6263 27.2074 23.8322 27.2928 24.0468 27.2928H25.6655V28.9134C25.6655 29.1283 25.7508 29.3344 25.9026 29.4864C26.0544 29.6384 26.2602 29.7237 26.4749 29.7237C26.6895 29.7237 26.8954 29.6384 27.0472 29.4864C27.199 29.3344 27.2842 29.1283 27.2842 28.9134V27.2928H28.9029C29.1176 27.2928 29.3234 27.2074 29.4752 27.0555C29.627 26.9035 29.7123 26.6974 29.7123 26.4825C29.7123 26.2676 29.627 26.0615 29.4752 25.9095C29.3234 25.7576 29.1176 25.6722 28.9029 25.6722Z" fill="#757575"/>
<path d="M27.2842 15.1383H24.8562C24.8562 13.8489 24.3446 12.6122 23.4339 11.7005C22.5232 10.7887 21.288 10.2765 20.0001 10.2765C18.7122 10.2765 17.477 10.7887 16.5663 11.7005C15.6556 12.6122 15.144 13.8489 15.144 15.1383H12.7159C12.0719 15.1383 11.4544 15.3944 10.999 15.8503C10.5437 16.3062 10.2878 16.9245 10.2878 17.5692V25.6722C10.2891 26.7464 10.7159 27.7761 11.4745 28.5356C12.2332 29.2952 13.2617 29.7224 14.3346 29.7237H21.6188C21.8334 29.7237 22.0393 29.6384 22.1911 29.4864C22.3429 29.3344 22.4281 29.1283 22.4281 28.9134C22.4281 28.6985 22.3429 28.4924 22.1911 28.3405C22.0393 28.1885 21.8334 28.1031 21.6188 28.1031H14.3346C13.6906 28.1031 13.0731 27.847 12.6177 27.3911C12.1624 26.9352 11.9065 26.3169 11.9065 25.6722V17.5692C11.9065 17.3543 11.9918 17.1482 12.1436 16.9962C12.2954 16.8443 12.5012 16.7589 12.7159 16.7589H15.144V18.3795C15.144 18.5944 15.2292 18.8005 15.381 18.9525C15.5328 19.1044 15.7387 19.1898 15.9533 19.1898C16.168 19.1898 16.3738 19.1044 16.5256 18.9525C16.6774 18.8005 16.7627 18.5944 16.7627 18.3795V16.7589H23.2375V18.3795C23.2375 18.5944 23.3228 18.8005 23.4745 18.9525C23.6263 19.1044 23.8322 19.1898 24.0468 19.1898C24.2615 19.1898 24.4674 19.1044 24.6191 18.9525C24.7709 18.8005 24.8562 18.5944 24.8562 18.3795V16.7589H27.2842C27.4989 16.7589 27.7048 16.8443 27.8565 16.9962C28.0083 17.1482 28.0936 17.3543 28.0936 17.5692V21.6207C28.0936 21.8356 28.1789 22.0417 28.3307 22.1937C28.4824 22.3456 28.6883 22.431 28.903 22.431C29.1176 22.431 29.3235 22.3456 29.4753 22.1937C29.627 22.0417 29.7123 21.8356 29.7123 21.6207V17.5692C29.7123 16.9245 29.4565 16.3062 29.0011 15.8503C28.5458 15.3944 27.9282 15.1383 27.2842 15.1383ZM16.7627 15.1383C16.7627 14.2787 17.1037 13.4543 17.7109 12.8464C18.318 12.2386 19.1415 11.8971 20.0001 11.8971C20.8587 11.8971 21.6821 12.2386 22.2893 12.8464C22.8964 13.4543 23.2375 14.2787 23.2375 15.1383H16.7627Z" fill="#757575"/>
</svg>
