<svg width="32" height="32" viewBox="0 0 32 32" fill="none" xmlns="http://www.w3.org/2000/svg">
<path d="M24.8421 10.6253C24.2227 10.8925 23.5487 11.0848 22.8545 11.1597C23.5753 10.7315 24.115 10.0549 24.3725 9.25706C23.6962 9.65942 22.9552 9.94156 22.1825 10.091C21.8596 9.74572 21.469 9.47068 21.0351 9.28299C20.6012 9.09529 20.1333 8.99896 19.6605 9.00001C17.7478 9.00001 16.2095 10.5504 16.2095 12.453C16.2095 12.7202 16.2419 12.9874 16.2946 13.2444C13.4305 13.0947 10.8762 11.7264 9.178 9.63151C8.86857 10.16 8.70642 10.7618 8.70842 11.3742C8.70842 12.5725 9.31766 13.629 10.2467 14.2504C9.6992 14.2288 9.16452 14.0783 8.68615 13.8112V13.8537C8.68615 15.5316 9.87224 16.9221 11.453 17.2419C11.1562 17.319 10.8509 17.3585 10.5442 17.3593C10.3196 17.3593 10.107 17.3371 9.89249 17.3067C10.3297 18.675 11.6028 19.6688 13.1188 19.7012C11.9327 20.6302 10.4471 21.1767 8.83391 21.1767C8.54447 21.1767 8.27729 21.1666 8 21.1342C9.53018 22.1158 11.3458 22.6826 13.301 22.6826C19.6484 22.6826 23.1217 17.4241 23.1217 12.8599C23.1217 12.7101 23.1217 12.5603 23.1115 12.4105C23.7835 11.9187 24.3725 11.3094 24.8421 10.6253Z" fill="#555555"/>
</svg>
